<svg clip-rule="evenodd" fill-rule="evenodd" stroke-linejoin="round" stroke-miterlimit="2" version="1.1" viewBox="0 0 2099 3098" xml:space="preserve" xmlns="http://www.w3.org/2000/svg"><path d="m1254.8 242.88c-25.042-15.896-48.131-34.677-68.792-55.959-35.708-37.25-55.333-75.541-58.333-113.79-2.987-39.209-34.755-70.548-74-73-42.494-2.435-79.558 30.282-82.417 72.75-6.542 85.75-94.125 149.08-127.12 170-489.88 97.125-844.12 528.08-844.12 1029.2 0.056 425.3 258.51 810.37 652.08 971.54v136.38c0.092 78.299 64.493 142.7 142.79 142.79h236.58c31.5 21.167 87.875 67.375 99.25 115.33 4.625 19.459 0.834 37.5-11.958 56.959-74.083 112.5-44.792 244.42 13.75 319.5 42.042 53.875 99.042 83.083 157.5 83.083 20.192 0.018 40.241-3.392 59.292-10.083 25.011-8.753 41.862-32.502 41.862-59 0-34.291-28.217-62.508-62.508-62.508-7.03 0-14.01 1.186-20.646 3.508-36.75 12.833-65.917-18-76.917-32-32-41-48.125-112.92-7.958-173.83 31.708-48.125 41.667-101.58 29.167-154.67-7.916-31.198-21.843-60.553-41-86.417h92.625c78.307-0.069 142.72-64.485 142.79-142.79v-136.25c393.61-161.13 652.08-546.22 652.08-971.54 0.041-501.17-354.21-932.12-844-1029.2zm718.62 1002h-1848c3.384-118.17 29.455-234.59 76.791-342.92h1694.4c47.35 108.32 73.435 224.75 76.834 342.92zm-1095-881.29 10.75-2.041 9.417-5.5c29.167-17 102-65 150.79-140.71 48.833 75.709 121.83 123.71 151 140.71l9.416 5.5 10.75 2.041c251.75 47.073 472.84 196.95 609.79 413.38h-1561.7c136.92-216.43 358.01-366.31 609.75-413.38zm-748.33 1006.3h1838.6c-12.482 120.17-48.667 236.69-106.46 342.79h-1625.7c-57.772-106.11-93.956-222.62-106.46-342.79zm1173.8 1028h-509.08c-9.752-0.023-17.769-8.04-17.792-17.792v-116.67h544.67v116.67c0 9.76-8.031 17.792-17.792 17.792zm69.084-259.58h-647.21c-161.26-60.159-302.48-164.32-407.58-300.62h1462.5c-105.13 136.32-246.4 240.49-407.71 300.62z" fill="#231f20" fill-rule="nonzero"/></svg>
