<svg id="Layer_1" data-name="Layer 1" xmlns="http://www.w3.org/2000/svg" viewBox="0 0 553.52 807.09"><defs><style>.cls-1{fill:#231f20;}</style></defs><path class="cls-1" d="M355.23,50H306C300.06,21.37,277.6,0,250.86,0s-49.21,21.37-55.13,50H146.49a79.52,79.52,0,0,0-79.44,79.43V572.13a79.53,79.53,0,0,0,79.44,79.44h21.95v31.11a36.72,36.72,0,0,0,36.69,36.68h9.16v48.11a10,10,0,0,0,20,0V719.36h18.92v48.11a10,10,0,0,0,20,0V719.36h14.72v48.11a10,10,0,0,0,20,0V719.36h9.17a36.72,36.72,0,0,0,36.68-36.68V651.57h1.45a79.53,79.53,0,0,0,79.43-79.44V129.44A79.52,79.52,0,0,0,355.23,50ZM97.05,335.79V183.54H404.66V335.79Zm307.61,30V518H97.05V365.79ZM250.86,30c10.39,0,19.63,8.29,24,20h-48C231.23,38.29,240.46,30,250.86,30ZM146.49,80H355.23a49.49,49.49,0,0,1,49.43,49.43v24.1H97.05v-24.1A49.5,49.5,0,0,1,146.49,80ZM323.78,682.68a6.69,6.69,0,0,1-6.68,6.68h-112a6.69,6.69,0,0,1-6.69-6.68V651.57H323.78Zm31.45-61.11H146.49a49.5,49.5,0,0,1-49.44-49.44V548H404.66v24.1A49.49,49.49,0,0,1,355.23,621.57Z"/></svg>