<svg id="Layer_1" data-name="Layer 1" xmlns="http://www.w3.org/2000/svg" viewBox="0 0 553.52 757.91"><defs><style>.cls-1{fill:#231f20;}</style></defs><path class="cls-1" d="M326.05,58.26a90.92,90.92,0,0,1-16.51-13.43c-8.57-8.94-13.28-18.13-14-27.31A19,19,0,0,0,277.78,0,18.75,18.75,0,0,0,258,17.46c-1.57,20.58-22.59,35.78-30.51,40.8C109.92,81.57,24.9,185,24.9,305.28A252,252,0,0,0,181.4,538.45v32.73a34.31,34.31,0,0,0,34.27,34.27h56.78c7.56,5.08,21.09,16.17,23.82,27.68,1.11,4.67.2,9-2.87,13.67-17.78,27-10.75,58.66,3.3,76.68,10.09,12.93,23.77,19.94,37.8,19.94A42.82,42.82,0,0,0,348.73,741a15,15,0,0,0-9.91-28.32C330,715.76,323,708.36,320.36,705c-7.68-9.84-11.55-27.1-1.91-41.72,7.61-11.55,10-24.38,7-37.12a59.38,59.38,0,0,0-9.84-20.74h22.23a34.3,34.3,0,0,0,34.27-34.27V538.45a251.95,251.95,0,0,0,156.5-233.17C528.62,185,443.6,81.57,326.05,58.26ZM498.52,298.73H55a221.36,221.36,0,0,1,18.43-82.3H480.08A221.37,221.37,0,0,1,498.52,298.73ZM235.73,87.22l2.58-.49,2.26-1.32c7-4.08,24.48-15.6,36.19-33.77C288.48,69.81,306,81.33,313,85.41l2.26,1.32,2.58.49a221.33,221.33,0,0,1,146.35,99.21H89.39A221.29,221.29,0,0,1,235.73,87.22ZM56.13,328.73H497.39A219.38,219.38,0,0,1,471.84,411H81.68A219.56,219.56,0,0,1,56.13,328.73ZM337.85,575.45H215.67a4.28,4.28,0,0,1-4.27-4.27v-28H342.12v28A4.27,4.27,0,0,1,337.85,575.45Zm16.58-62.3H199.1A221.11,221.11,0,0,1,101.28,441h351A221.11,221.11,0,0,1,354.43,513.15Z"/></svg>