<?xml version="1.0" encoding="UTF-8"?>
<!DOCTYPE svg  PUBLIC '-//W3C//DTD SVG 1.1//EN'  'http://www.w3.org/Graphics/SVG/1.1/DTD/svg11.dtd'>
<svg clip-rule="evenodd" fill-rule="evenodd" stroke-linejoin="round" stroke-miterlimit="2" version="1.1" viewBox="0 0 1532 3240" xml:space="preserve" xmlns="http://www.w3.org/2000/svg">
  <clipPath id="a">
    <rect x="-4.284" width="1523.1" height="3239.5"/>
  </clipPath>
  <g clip-path="url(#a)">
    <path d="m1200.8 208.33h-205.12c-24.75-119.29-118.33-208.33-229.75-208.33s-205.04 89.042-229.71 208.33h-205.17c-181.5 0.183-330.8 149.46-331 330.96v1844.6c0.205 181.5 149.5 330.8 331 331h91.458v129.62c0.092 83.823 69.052 152.76 152.88 152.83h38.167v200.46c0 22.857 18.809 41.666 41.667 41.666 22.857 0 41.666-18.809 41.666-41.666v-200.46h78.834v200.46c0 22.857 18.809 41.666 41.666 41.666 22.858 0 41.667-18.809 41.667-41.666v-200.46h61.333v200.46c0 22.857 18.809 41.666 41.667 41.666s41.667-18.809 41.667-41.666v-200.46h38.208c83.807-0.091 152.74-69.026 152.83-152.83v-129.62h6.042c181.49-0.228 330.75-149.51 330.96-331v-1844.5c-0.182-181.5-149.46-330.79-330.96-331zm-1075.8 1190.8v-634.38h1281.7v634.38h-1281.7zm1281.7 125v634.21h-1281.7v-634.21h1281.7zm-640.83-1399.1c43.292 0 81.792 34.542 100 83.333h-200c18.208-48.791 56.667-83.333 100-83.333zm-434.88 208.33h869.75c112.93 0.137 205.82 93.025 205.96 205.96v100.42h-1281.7v-100.42c0.16-112.94 93.059-205.82 206-205.96zm738.71 2511.2c-0.022 15.26-12.573 27.811-27.833 27.833h-466.67c-15.276 0-27.852-12.557-27.875-27.833v-129.62h522.38v129.62zm131.04-254.62h-869.75c-112.96-0.137-205.86-93.044-206-206v-100.54h1281.7v100.42c-0.045 113-92.961 205.99-205.96 206.12z" fill="#231f20" fill-rule="nonzero"/>
  </g>
</svg>
