<?xml version="1.0" encoding="UTF-8"?>
<svg width="1445px" height="393px" viewBox="0 0 1445 393" version="1.1" xmlns="http://www.w3.org/2000/svg" xmlns:xlink="http://www.w3.org/1999/xlink">
    <title>Combined Shape</title>
    <defs>
        <rect id="path-1" x="0" y="0" width="1445" height="393"></rect>
    </defs>
    <g id="Page-1" stroke="none" stroke-width="1" fill="none" fill-rule="evenodd">
        <g id="Combined-Shape">
            <mask id="mask-2" fill="white">
                <use xlink:href="#path-1"></use>
            </mask>
            <g id="Mask"></g>
            <path d="M499,0 L556.32956,183.634331 C599.629329,182.557652 643.929049,182 689,182 C868.776348,182 1036.28237,190.87228 1177.00323,206.165555 L1177,197 L1141,197 L1187.5,48 L1233.063,193.999 L1259,111 L1289.4,208.28 L1341,43 L1402.85931,241.096068 C1521.41878,266.901862 1592,299.308914 1592,334.5 C1592,418.723424 1187.71313,487 689,487 C190.286871,487 -214,418.723424 -214,334.5 C-214,291.32447 -107.757277,252.33962 62.9854528,224.595022 L62.9993729,214.403017 L32.9853729,214.403786 L71.8047642,91.0370167 L107.143,203.342 L133.5,119 L161,207 L140,207 L139.984638,213.413672 C210.716906,204.253049 289.707252,196.820206 374.743839,191.488681 L395.5,125 L415.506436,189.119785 C423.734876,188.678688 432.0144,188.256963 440.343131,187.854928 L499,0 Z M127,207 L108.294,207 L110.624156,214.403786 L80.9993729,214.403017 L80.9965062,221.746862 C96.1883884,219.409081 111.854508,217.157684 127.967636,214.997269 L127,215 L127,207 Z M1232.125,197 L1198,197 L1198.00843,208.518915 C1207.96174,209.668098 1217.77189,210.850045 1227.43346,212.063838 L1232.125,197 Z" fill="#1B2245" mask="url(#mask-2)"></path>
        </g>
    </g>
</svg>